<svg xmlns="http://www.w3.org/2000/svg" width="520" height="40" viewBox="0 0 520 40">
  <defs><clipPath id="clip"><rect x="0" y="0" width="520" height="40"/></clipPath></defs>
  <g clip-path="url(#clip)">
    <g>
      <animateTransform attributeName="transform" attributeType="XML"
        type="rotate" from="0 260.00 90.00" to="360 260.00 90.00"
        dur="18s" repeatCount="indefinite" />
      <path d="M 500.00 90.00 L 467.21 108.13 L 496.35 131.68 L 460.91 143.83 L 485.53 172.08 L 448.51 177.90 L 467.85 210.00 L 430.38 209.30 L 443.85 244.27 L 407.08 237.08 L 414.27 273.85 L 379.30 260.38 L 380.00 297.85 L 347.90 278.51 L 342.08 315.53 L 313.83 290.91 L 301.68 326.35 L 278.13 297.21 L 260.00 330.00 L 241.87 297.21 L 218.32 326.35 L 206.17 290.91 L 177.92 315.53 L 172.10 278.51 L 140.00 297.85 L 140.70 260.38 L 105.73 273.85 L 112.92 237.08 L 76.15 244.27 L 89.62 209.30 L 52.15 210.00 L 71.49 177.90 L 34.47 172.08 L 59.09 143.83 L 23.65 131.68 L 52.79 108.13 L 20.00 90.00 L 52.79 71.87 L 23.65 48.32 L 59.09 36.17 L 34.47 7.92 L 71.49 2.10 L 52.15 -30.00 L 89.62 -29.30 L 76.15 -64.27 L 112.92 -57.08 L 105.73 -93.85 L 140.70 -80.38 L 140.00 -117.85 L 172.10 -98.51 L 177.92 -135.53 L 206.17 -110.91 L 218.32 -146.35 L 241.87 -117.21 L 260.00 -150.00 L 278.13 -117.21 L 301.68 -146.35 L 313.83 -110.91 L 342.08 -135.53 L 347.90 -98.51 L 380.00 -117.85 L 379.30 -80.38 L 414.27 -93.85 L 407.08 -57.08 L 443.85 -64.27 L 430.38 -29.30 L 467.85 -30.00 L 448.51 2.10 L 485.53 7.92 L 460.91 36.17 L 496.35 48.32 L 467.21 71.87 Z M 430.00 90.00 A 170.00 170.00 0 1 0 90.00 90.00 A 170.00 170.00 0 1 0 430.00 90.00 Z" fill="#8b949e" fill-rule="evenodd"
            stroke="#6e7681" stroke-width="2"
            stroke-linejoin="miter" stroke-miterlimit="6"
            shape-rendering="geometricPrecision"/>
    </g>
  </g>
</svg>
