<svg xmlns="http://www.w3.org/2000/svg" width="520" height="40" viewBox="0 0 520 40">
  <defs><clipPath id="clip"><rect x="0" y="0" width="520" height="40"/></clipPath></defs>
  <g clip-path="url(#clip)">
    <g>
      <animateTransform attributeName="transform" attributeType="XML"
        type="rotate" from="0 260.00 -50.00" to="360 260.00 -50.00"
        dur="18s" repeatCount="indefinite" />
      <path d="M 500.00 -50.00 L 467.21 -31.87 L 496.35 -8.32 L 460.91 3.83 L 485.53 32.08 L 448.51 37.90 L 467.85 70.00 L 430.38 69.30 L 443.85 104.27 L 407.08 97.08 L 414.27 133.85 L 379.30 120.38 L 380.00 157.85 L 347.90 138.51 L 342.08 175.53 L 313.83 150.91 L 301.68 186.35 L 278.13 157.21 L 260.00 190.00 L 241.87 157.21 L 218.32 186.35 L 206.17 150.91 L 177.92 175.53 L 172.10 138.51 L 140.00 157.85 L 140.70 120.38 L 105.73 133.85 L 112.92 97.08 L 76.15 104.27 L 89.62 69.30 L 52.15 70.00 L 71.49 37.90 L 34.47 32.08 L 59.09 3.83 L 23.65 -8.32 L 52.79 -31.87 L 20.00 -50.00 L 52.79 -68.13 L 23.65 -91.68 L 59.09 -103.83 L 34.47 -132.08 L 71.49 -137.90 L 52.15 -170.00 L 89.62 -169.30 L 76.15 -204.27 L 112.92 -197.08 L 105.73 -233.85 L 140.70 -220.38 L 140.00 -257.85 L 172.10 -238.51 L 177.92 -275.53 L 206.17 -250.91 L 218.32 -286.35 L 241.87 -257.21 L 260.00 -290.00 L 278.13 -257.21 L 301.68 -286.35 L 313.83 -250.91 L 342.08 -275.53 L 347.90 -238.51 L 380.00 -257.85 L 379.30 -220.38 L 414.27 -233.85 L 407.08 -197.08 L 443.85 -204.27 L 430.38 -169.30 L 467.85 -170.00 L 448.51 -137.90 L 485.53 -132.08 L 460.91 -103.83 L 496.35 -91.68 L 467.21 -68.13 Z M 430.00 -50.00 A 170.00 170.00 0 1 0 90.00 -50.00 A 170.00 170.00 0 1 0 430.00 -50.00 Z" fill="#8b949e" fill-rule="evenodd"
            stroke="#6e7681" stroke-width="2"
            stroke-linejoin="miter" stroke-miterlimit="6"
            shape-rendering="geometricPrecision"/>
    </g>
  </g>
</svg>
