<svg xmlns="http://www.w3.org/2000/svg" viewBox="0 0 600 40">
  <g id="gear">
    <animateTransform attributeName="transform" attributeType="XML"
      type="rotate" from="0 300 210" to="360 300 210" dur="4s" repeatCount="indefinite"/>
    <!-- teeth -->
    <rect x="291" y="0" width="18" height="30" rx="3" fill="#8b949e" transform="rotate(0 300 210)"/><rect x="291" y="0" width="18" height="30" rx="3" fill="#8b949e" transform="rotate(15 300 210)"/><rect x="291" y="0" width="18" height="30" rx="3" fill="#8b949e" transform="rotate(30 300 210)"/><rect x="291" y="0" width="18" height="30" rx="3" fill="#8b949e" transform="rotate(45 300 210)"/><rect x="291" y="0" width="18" height="30" rx="3" fill="#8b949e" transform="rotate(60 300 210)"/><rect x="291" y="0" width="18" height="30" rx="3" fill="#8b949e" transform="rotate(75 300 210)"/><rect x="291" y="0" width="18" height="30" rx="3" fill="#8b949e" transform="rotate(90 300 210)"/><rect x="291" y="0" width="18" height="30" rx="3" fill="#8b949e" transform="rotate(105 300 210)"/><rect x="291" y="0" width="18" height="30" rx="3" fill="#8b949e" transform="rotate(120 300 210)"/><rect x="291" y="0" width="18" height="30" rx="3" fill="#8b949e" transform="rotate(135 300 210)"/><rect x="291" y="0" width="18" height="30" rx="3" fill="#8b949e" transform="rotate(150 300 210)"/><rect x="291" y="0" width="18" height="30" rx="3" fill="#8b949e" transform="rotate(165 300 210)"/><rect x="291" y="0" width="18" height="30" rx="3" fill="#8b949e" transform="rotate(180 300 210)"/><rect x="291" y="0" width="18" height="30" rx="3" fill="#8b949e" transform="rotate(195 300 210)"/><rect x="291" y="0" width="18" height="30" rx="3" fill="#8b949e" transform="rotate(210 300 210)"/><rect x="291" y="0" width="18" height="30" rx="3" fill="#8b949e" transform="rotate(225 300 210)"/><rect x="291" y="0" width="18" height="30" rx="3" fill="#8b949e" transform="rotate(240 300 210)"/><rect x="291" y="0" width="18" height="30" rx="3" fill="#8b949e" transform="rotate(255 300 210)"/><rect x="291" y="0" width="18" height="30" rx="3" fill="#8b949e" transform="rotate(270 300 210)"/><rect x="291" y="0" width="18" height="30" rx="3" fill="#8b949e" transform="rotate(285 300 210)"/><rect x="291" y="0" width="18" height="30" rx="3" fill="#8b949e" transform="rotate(300 300 210)"/><rect x="291" y="0" width="18" height="30" rx="3" fill="#8b949e" transform="rotate(315 300 210)"/><rect x="291" y="0" width="18" height="30" rx="3" fill="#8b949e" transform="rotate(330 300 210)"/><rect x="291" y="0" width="18" height="30" rx="3" fill="#8b949e" transform="rotate(345 300 210)"/>
    <!-- outer ring -->
    <circle cx="300" cy="210" r="180" fill="none" stroke="#8b949e" stroke-width="10" opacity="0.9"/>
    <!-- inner ring -->
    <circle cx="300" cy="210" r="55" fill="none" stroke="#8b949e" stroke-width="10" opacity="0.7"/>
    <!-- hub -->
    <circle cx="300" cy="210" r="22" fill="#8b949e" opacity="0.9"/>
  </g>
</svg>
